# xmcd
#
# Track frame offsets:
#	150
#	15005
#	30027
#	42530
#	56235
#	69320
#	82297
#	97887
#	108857
#	120300
#	135917
#	151747
#	165800
#	179047
#	195127
#	207612
#	220410
#	235567
#	251455
#	260507
#
# Disc length: 3637 seconds
#
# Revision: 0
# Processed by: cddbd v1.5.2PL0 Copyright (c) Steve Scherf et al.
# Submitted via: EasyCDDAExtractor 15.3.0.1
#
DISCID=f50e3314
DTITLE=Reader's Digest Music - Don't Rock The Jukebox  [Country's All-Time Fav
DTITLE=orites]  [Disc 2 of 4]
DYEAR=2010
DGENRE=Country
TTITLE0=John Denver - Take Me Home, Country Roads
TTITLE1=Roger Miller - Me And Bobby McGee
TTITLE2=Johnny Paycheck - Take This Job And Shove It
TTITLE3=David Houston - Almost Persuaded
TTITLE4=Merle Haggard - Swinging Doors
TTITLE5=Bill Anderson - Still
TTITLE6=Cal Smith - Country Bumpkin
TTITLE7=Ferlin Husky - Gone
TTITLE8=Ray Price - Crazy Arms
TTITLE9=Roy Clark - Somewhere Between Love And Tomorrow
TTITLE10=Kenny Rogers - Through The Years
TTITLE11=Conway Twitty - Fifteen Years Ago
TTITLE12=Donna Fargo - Daddy
TTITLE13=Bill Anderson - Mama Sang A Song
TTITLE14=Bobby Helms - Fraulein
TTITLE15=Billie Jo Spears - '57 Chevrolet
TTITLE16=Don Williams - In My Younger Days
TTITLE17=Holly Dunn - Daddy's Hands
TTITLE18=John Denver - Grandma's Feather Bed
TTITLE19=Merle Haggard - The Roots Of My Raising
EXTD=
EXTT0=
EXTT1=
EXTT2=
EXTT3=
EXTT4=
EXTT5=
EXTT6=
EXTT7=
EXTT8=
EXTT9=
EXTT10=
EXTT11=
EXTT12=
EXTT13=
EXTT14=
EXTT15=
EXTT16=
EXTT17=
EXTT18=
EXTT19=
PLAYORDER=
